<?xml version="1.0" standalone="no"?>
<!DOCTYPE svg PUBLIC "-//W3C//DTD SVG 20010904//EN"
 "http://www.w3.org/TR/2001/REC-SVG-20010904/DTD/svg10.dtd">
<svg version="1.0" xmlns="http://www.w3.org/2000/svg"
 width="260.000000pt" height="260.000000pt" viewBox="0 0 260.000000 260.000000"
 preserveAspectRatio="xMidYMid meet">
<metadata>
Created by potrace 1.14, written by Peter Selinger 2001-2017
</metadata>
<g transform="translate(0.000000,260.000000) scale(0.100000,-0.100000)"
fill="#000000" stroke="none">
<path d="M12 2588 c-9 -9 -12 -312 -12 -1300 l0 -1288 1300 0 1300 0 0 1300 0
1300 -1288 0 c-988 0 -1291 -3 -1300 -12z m1481 -582 c77 -21 190 -78 256
-129 60 -46 143 -142 179 -206 36 -63 12 -48 -32 20 -174 270 -516 387 -825
284 -76 -25 -180 -83 -228 -128 -13 -11 -23 -16 -23 -9 0 36 209 151 310 171
30 6 64 13 75 15 40 9 231 -3 288 -18z m-8 -91 c269 -93 438 -310 453 -581 15
-290 -163 -548 -444 -640 -220 -72 -470 -13 -636 150 -117 113 -185 262 -195
425 -18 300 185 574 487 656 74 20 265 15 335 -10z m-796 -252 c-22 -38 -52
-104 -66 -148 -24 -71 -27 -95 -27 -215 0 -122 3 -143 28 -215 66 -192 192
-338 363 -421 31 -16 51 -30 45 -32 -15 -5 -107 43 -167 88 -297 219 -378 656
-181 968 43 69 48 48 5 -25z m1332 -253 c58 -373 -186 -730 -560 -816 -68 -16
-268 -21 -282 -7 -4 4 51 8 124 8 122 1 139 3 220 32 122 43 189 85 283 178
64 64 89 98 126 172 64 126 82 214 75 361 -3 65 -8 128 -12 142 -6 18 -5 22 3
15 6 -6 16 -44 23 -85z"/>
<path d="M1220 1920 c-250 -33 -467 -228 -525 -471 -33 -140 -10 -314 57 -442
47 -90 174 -214 265 -260 387 -192 850 52 901 475 24 198 -40 381 -182 523
-136 135 -328 201 -516 175z m153 -254 c3 -8 21 -16 39 -18 31 -3 33 -6 38
-47 l5 -44 31 26 c18 15 41 27 53 27 20 0 21 -5 21 -125 0 -120 -1 -125 -21
-125 -11 0 -36 12 -54 26 l-34 25 -3 -43 c-3 -41 -5 -43 -36 -46 -18 -2 -36
-10 -39 -18 -8 -21 -131 -20 -139 1 -5 11 -24 15 -80 15 l-74 0 0 80 c0 62 -3
82 -15 86 -20 8 -21 100 -1 107 8 3 16 16 18 29 3 22 6 23 123 26 92 2 121 6
128 17 10 19 33 19 40 1z m-443 -575 c0 -52 -8 -71 -31 -71 -23 0 -25 15 -4
24 22 8 20 73 -2 79 -11 3 -7 5 10 6 25 1 27 -2 27 -38z m252 -13 c5 -59 4
-63 -11 -53 -13 8 -15 105 -2 105 5 0 11 -24 13 -52z m138 35 c1 -17 1 -17 11
0 5 9 17 17 24 17 11 0 15 -14 15 -55 0 -64 -19 -75 -21 -12 -1 23 -4 32 -6
20 -2 -13 -8 -23 -13 -23 -5 0 -12 10 -17 23 -6 18 -9 15 -14 -23 l-6 -45 -1
58 c-2 45 1 57 13 57 8 0 15 -8 15 -17z m-306 -19 c22 -8 21 -63 0 -71 -36
-13 -68 33 -44 62 14 17 21 18 44 9z m106 -9 c15 -18 5 -35 -23 -35 -17 0 -19
-2 -7 -9 8 -6 18 -7 22 -5 4 3 8 0 8 -5 0 -19 -39 -12 -50 9 -21 40 22 79 50
45z m310 -15 c0 -16 5 -30 10 -30 6 0 10 14 10 30 0 17 5 30 10 30 6 0 10 -18
10 -41 0 -38 -1 -40 -27 -37 -24 3 -28 8 -31 41 -2 21 1 37 7 37 6 0 11 -13
11 -30z m138 -12 c2 -22 -1 -38 -7 -38 -6 0 -11 14 -11 30 0 17 -4 30 -10 30
-5 0 -10 -13 -10 -30 0 -16 -4 -30 -10 -30 -5 0 -10 18 -10 41 0 38 1 40 28
37 23 -3 27 -8 30 -40z m62 2 c0 -22 -4 -40 -10 -40 -5 0 -10 18 -10 40 0 22
5 40 10 40 6 0 10 -18 10 -40z m90 32 c0 -5 -7 -17 -15 -28 -19 -25 -19 -32 3
-37 9 -3 2 -5 -15 -6 -36 -1 -39 5 -18 33 19 26 19 34 -2 39 -10 3 -3 5 15 6
17 0 32 -3 32 -7z"/>
<path d="M1345 1660 c-3 -5 -1 -10 4 -10 6 0 11 5 11 10 0 6 -2 10 -4 10 -3 0
-8 -4 -11 -10z"/>
<path d="M1090 1616 c0 -13 -7 -26 -15 -30 -10 -3 -15 -19 -15 -45 0 -25 5
-41 15 -45 12 -4 15 -24 15 -86 l0 -80 173 2 172 3 0 150 0 150 -172 3 -173 2
0 -24z m278 -55 c18 -11 12 -53 -8 -58 -12 -4 -12 -3 -2 5 20 14 10 47 -13 47
-23 0 -33 -33 -13 -47 10 -8 10 -9 -2 -5 -33 8 -20 67 15 67 6 0 16 -4 23 -9z
m-165 -28 c-13 -2 -35 -2 -50 0 -16 2 -5 4 22 4 28 0 40 -2 28 -4z m70 0 c-7
-2 -19 -2 -25 0 -7 3 -2 5 12 5 14 0 19 -2 13 -5z m147 -173 c0 -5 -2 -10 -4
-10 -3 0 -8 5 -11 10 -3 6 -1 10 4 10 6 0 11 -4 11 -10z"/>
<path d="M1487 1569 c-34 -28 -37 -34 -37 -84 0 -48 3 -56 35 -84 60 -53 65
-47 65 84 0 130 -3 134 -63 84z m40 -132 c-2 -23 -3 -1 -3 48 0 50 1 68 3 42
2 -26 2 -67 0 -90z"/>
<path d="M1250 1310 c0 -5 25 -10 55 -10 30 0 55 5 55 10 0 6 -25 10 -55 10
-30 0 -55 -4 -55 -10z"/>
<path d="M984 1076 c-8 -21 3 -49 16 -41 5 3 10 15 10 25 0 25 -18 36 -26 16z"/>
<path d="M1085 1080 c-3 -5 1 -10 10 -10 9 0 13 5 10 10 -3 6 -8 10 -10 10 -2
0 -7 -4 -10 -10z"/>
</g>
</svg>
