<svg width="19" height="14" viewBox="0 0 19 14" fill="none" xmlns="http://www.w3.org/2000/svg">
<path fill-rule="evenodd" clip-rule="evenodd" d="M18.652 0.356449C18.8748 0.584752 19 0.894356 19 1.21718C19 1.54 18.8748 1.8496 18.652 2.0779L7.36197 13.6436C7.13911 13.8718 6.83688 14 6.52175 14C6.20663 14 5.9044 13.8718 5.68154 13.6436L0.333606 8.16509C0.117125 7.93548 -0.00266281 7.62795 4.49255e-05 7.30874C0.00275266 6.98953 0.127739 6.68418 0.348083 6.45846C0.568427 6.23274 0.8665 6.1047 1.1781 6.10193C1.4897 6.09916 1.7899 6.22187 2.01404 6.44363L6.52175 11.0614L16.9716 0.356449C17.1945 0.128215 17.4967 0 17.8118 0C18.127 0 18.4292 0.128215 18.652 0.356449Z" fill="white"/>
</svg>
