<svg width="22" height="22" viewBox="0 0 22 22" fill="none" xmlns="http://www.w3.org/2000/svg">
<g clip-path="url(#clip0_282024_220)">
<path fill-rule="evenodd" clip-rule="evenodd" d="M6.84294 0.977248C7.91819 0.927748 8.26102 0.916748 11 0.916748C13.739 0.916748 14.0819 0.928665 15.1562 0.977248C16.2305 1.02583 16.9639 1.19725 17.6055 1.44566C18.2774 1.69958 18.887 2.0965 19.3912 2.60983C19.9045 3.11308 20.3005 3.72175 20.5535 4.39458C20.8029 5.03625 20.9734 5.76958 21.0229 6.84208C21.0724 7.91916 21.0834 8.262 21.0834 11.0001C21.0834 13.7391 21.0714 14.0819 21.0229 15.1572C20.9743 16.2297 20.8029 16.963 20.5535 17.6047C20.3005 18.2776 19.9039 18.8873 19.3912 19.3912C18.887 19.9046 18.2774 20.3006 17.6055 20.5536C16.9639 20.8029 16.2305 20.9734 15.158 21.0229C14.0819 21.0724 13.739 21.0834 11 21.0834C8.26102 21.0834 7.91819 21.0715 6.84294 21.0229C5.77044 20.9743 5.0371 20.8029 4.39544 20.5536C3.72253 20.3005 3.11286 19.9039 2.60885 19.3912C2.09587 18.8877 1.69889 18.2783 1.4456 17.6056C1.19719 16.9639 1.02669 16.2306 0.977187 15.1581C0.927687 14.081 0.916687 13.7382 0.916687 11.0001C0.916687 8.26108 0.928604 7.91825 0.977187 6.84391C1.02577 5.76958 1.19719 5.03625 1.4456 4.39458C1.69927 3.72182 2.09655 3.11245 2.60977 2.60891C3.11306 2.09604 3.72212 1.69907 4.39452 1.44566C5.03619 1.19725 5.76952 1.02675 6.84202 0.977248H6.84294ZM15.0746 2.79225C14.0113 2.74366 13.6923 2.73358 11 2.73358C8.30777 2.73358 7.98877 2.74366 6.92544 2.79225C5.94185 2.83716 5.40835 3.00125 5.05269 3.13966C4.58244 3.323 4.24602 3.54025 3.8931 3.89316C3.55856 4.21863 3.3011 4.61484 3.1396 5.05275C3.00119 5.40841 2.8371 5.94191 2.79219 6.9255C2.7436 7.98883 2.73352 8.30783 2.73352 11.0001C2.73352 13.6923 2.7436 14.0113 2.79219 15.0747C2.8371 16.0582 3.00119 16.5917 3.1396 16.9474C3.30094 17.3847 3.55852 17.7816 3.8931 18.107C4.21852 18.4416 4.61544 18.6992 5.05269 18.8605C5.40835 18.9989 5.94185 19.163 6.92544 19.2079C7.98877 19.2565 8.30685 19.2666 11 19.2666C13.6932 19.2666 14.0113 19.2565 15.0746 19.2079C16.0582 19.163 16.5917 18.9989 16.9474 18.8605C17.4176 18.6772 17.754 18.4599 18.1069 18.107C18.4415 17.7816 18.6991 17.3847 18.8604 16.9474C18.9989 16.5917 19.1629 16.0582 19.2079 15.0747C19.2564 14.0113 19.2665 13.6923 19.2665 11.0001C19.2665 8.30783 19.2564 7.98883 19.2079 6.9255C19.1629 5.94191 18.9989 5.40841 18.8604 5.05275C18.6771 4.5825 18.4599 4.24608 18.1069 3.89316C17.7815 3.55865 17.3852 3.30119 16.9474 3.13966C16.5917 3.00125 16.0582 2.83716 15.0746 2.79225ZM9.7121 14.1085C10.4314 14.4079 11.2323 14.4483 11.978 14.2228C12.7238 13.9973 13.3681 13.5199 13.801 12.8721C14.2339 12.2244 14.4284 11.4464 14.3514 10.6711C14.2744 9.89581 13.9306 9.17131 13.3788 8.62133C13.027 8.26977 12.6016 8.00058 12.1333 7.83313C11.665 7.66569 11.1654 7.60416 10.6705 7.65298C10.1755 7.7018 9.69758 7.85974 9.27101 8.11545C8.84444 8.37116 8.47987 8.71826 8.20355 9.13178C7.92723 9.54529 7.74603 10.0149 7.67299 10.5069C7.59996 10.9988 7.63691 11.5008 7.78118 11.9768C7.92545 12.4528 8.17346 12.8908 8.50735 13.2594C8.84123 13.628 9.25269 13.918 9.7121 14.1085ZM7.33519 7.33525C7.81646 6.85397 8.38781 6.47221 9.01663 6.21175C9.64544 5.95128 10.3194 5.81722 11 5.81722C11.6806 5.81722 12.3546 5.95128 12.9834 6.21175C13.6122 6.47221 14.1836 6.85397 14.6649 7.33525C15.1461 7.81652 15.5279 8.38787 15.7884 9.01669C16.0488 9.6455 16.1829 10.3195 16.1829 11.0001C16.1829 11.6807 16.0488 12.3547 15.7884 12.9835C15.5279 13.6123 15.1461 14.1836 14.6649 14.6649C13.6929 15.6369 12.3746 16.1829 11 16.1829C9.62544 16.1829 8.30716 15.6369 7.33519 14.6649C6.36321 13.6929 5.81716 12.3747 5.81716 11.0001C5.81716 9.6255 6.36321 8.30722 7.33519 7.33525ZM17.3324 6.58908C17.4516 6.47658 17.5471 6.34129 17.6131 6.19122C17.6792 6.04116 17.7144 5.87937 17.7168 5.71543C17.7192 5.5515 17.6887 5.38875 17.627 5.23682C17.5654 5.0849 17.4739 4.94688 17.358 4.83095C17.2421 4.71502 17.104 4.62353 16.9521 4.56189C16.8002 4.50025 16.6374 4.46973 16.4735 4.47212C16.3096 4.47451 16.1478 4.50976 15.9977 4.5758C15.8476 4.64184 15.7124 4.73732 15.5999 4.85658C15.3811 5.08852 15.2613 5.39661 15.2659 5.71543C15.2706 6.03426 15.3993 6.33872 15.6247 6.56419C15.8502 6.78965 16.1547 6.91837 16.4735 6.92302C16.7923 6.92767 17.1004 6.80788 17.3324 6.58908Z" fill="black"/>
</g>
<defs>
<clipPath id="clip0_282024_220">
<rect width="22" height="22" fill="white"/>
</clipPath>
</defs>
</svg>
