<svg width="15" height="21" viewBox="0 0 15 21" fill="none" xmlns="http://www.w3.org/2000/svg">
<path d="M12.4957 11.6554C11.8516 12.9608 10.9789 14.2613 10.0865 15.429C9.24001 16.5298 8.33486 17.5844 7.375 18.5879C6.41512 17.5844 5.50997 16.5299 4.66346 15.429C3.77108 14.2613 2.89838 12.9608 2.25429 11.6554C1.60283 10.3365 1.22917 9.10123 1.22917 8.04169C1.22917 6.41171 1.87667 4.84849 3.02924 3.69593C4.18181 2.54336 5.74502 1.89585 7.375 1.89585C9.00498 1.89585 10.5682 2.54336 11.7208 3.69593C12.8733 4.84849 13.5208 6.41171 13.5208 8.04169C13.5208 9.10123 13.1459 10.3365 12.4957 11.6554ZM7.375 20.3334C7.375 20.3334 14.75 13.3443 14.75 8.04169C14.75 6.08572 13.973 4.20986 12.5899 2.82677C11.2068 1.44369 9.33097 0.666687 7.375 0.666687C5.41903 0.666687 3.54317 1.44369 2.16009 2.82677C0.777007 4.20986 2.91462e-08 6.08572 0 8.04169C0 13.3443 7.375 20.3334 7.375 20.3334Z" fill="black"/>
<path d="M7.375 10.5C6.72301 10.5 6.09772 10.241 5.6367 9.77999C5.17567 9.31896 4.91667 8.69368 4.91667 8.04169C4.91667 7.3897 5.17567 6.76441 5.6367 6.30338C6.09772 5.84236 6.72301 5.58335 7.375 5.58335C8.02699 5.58335 8.65228 5.84236 9.1133 6.30338C9.57433 6.76441 9.83333 7.3897 9.83333 8.04169C9.83333 8.69368 9.57433 9.31896 9.1133 9.77999C8.65228 10.241 8.02699 10.5 7.375 10.5ZM7.375 11.7292C8.35299 11.7292 9.29092 11.3407 9.98246 10.6491C10.674 9.9576 11.0625 9.01967 11.0625 8.04169C11.0625 7.0637 10.674 6.12577 9.98246 5.43423C9.29092 4.74269 8.35299 4.35419 7.375 4.35419C6.39701 4.35419 5.45908 4.74269 4.76754 5.43423C4.076 6.12577 3.6875 7.0637 3.6875 8.04169C3.6875 9.01967 4.076 9.9576 4.76754 10.6491C5.45908 11.3407 6.39701 11.7292 7.375 11.7292Z" fill="black"/>
</svg>
