<svg width="94" height="13" viewBox="0 0 94 13" fill="none" xmlns="http://www.w3.org/2000/svg">
<path d="M0.585 12V10.125H1.23C1.71 10.125 2.09 9.99 2.37 9.72C2.66 9.44 2.805 9.07 2.805 8.61V0.824999H4.86V8.535C4.86 9.225 4.71 9.83 4.41 10.35C4.12 10.87 3.7 11.275 3.15 11.565C2.61 11.855 1.97 12 1.23 12H0.585ZM13.2237 12.18C12.4037 12.18 11.6387 12.035 10.9287 11.745C10.2187 11.455 9.59867 11.05 9.06867 10.53C8.53867 10.01 8.12367 9.4 7.82367 8.7C7.53367 7.99 7.38867 7.225 7.38867 6.405C7.38867 5.575 7.53367 4.81 7.82367 4.11C8.11367 3.41 8.52367 2.8 9.05367 2.28C9.58367 1.76 10.2037 1.36 10.9137 1.08C11.6237 0.789999 12.3937 0.645 13.2237 0.645C14.0537 0.645 14.8237 0.789999 15.5337 1.08C16.2437 1.37 16.8637 1.775 17.3937 2.295C17.9237 2.805 18.3337 3.41 18.6237 4.11C18.9237 4.81 19.0737 5.575 19.0737 6.405C19.0737 7.225 18.9237 7.99 18.6237 8.7C18.3237 9.4 17.9087 10.01 17.3787 10.53C16.8487 11.05 16.2287 11.455 15.5187 11.745C14.8187 12.035 14.0537 12.18 13.2237 12.18ZM13.2237 10.32C13.7737 10.32 14.2787 10.225 14.7387 10.035C15.1987 9.835 15.5987 9.56 15.9387 9.21C16.2887 8.86 16.5537 8.445 16.7337 7.965C16.9237 7.485 17.0187 6.965 17.0187 6.405C17.0187 5.845 16.9237 5.33 16.7337 4.86C16.5537 4.38 16.2887 3.965 15.9387 3.615C15.5987 3.255 15.1987 2.98 14.7387 2.79C14.2787 2.6 13.7737 2.505 13.2237 2.505C12.6837 2.505 12.1837 2.6 11.7237 2.79C11.2637 2.98 10.8587 3.255 10.5087 3.615C10.1687 3.965 9.90367 4.38 9.71367 4.86C9.52367 5.33 9.42867 5.845 9.42867 6.405C9.42867 6.965 9.52367 7.485 9.71367 7.965C9.90367 8.445 10.1687 8.86 10.5087 9.21C10.8587 9.56 11.2637 9.835 11.7237 10.035C12.1837 10.225 12.6837 10.32 13.2237 10.32ZM21.6376 12V0.824999H29.0626V2.625H23.6776V5.49H28.7626V7.29H23.6776V10.2H29.0626V12H21.6376ZM31.3085 12V0.824999H33.3485V10.2H38.1335V12H31.3085ZM43.6191 12V0.824999H45.5691L49.7541 6.51H48.8241L52.9191 0.824999H54.8691V12H52.8141V3.15L53.6091 3.345L49.3641 9H49.1241L44.9841 3.345L45.6591 3.15V12H43.6191ZM62.0627 12.18C61.2027 12.18 60.4377 12 59.7677 11.64C59.1077 11.28 58.5877 10.785 58.2077 10.155C57.8277 9.525 57.6377 8.81 57.6377 8.01V0.824999H59.6777V7.905C59.6777 8.365 59.7777 8.78 59.9777 9.15C60.1877 9.52 60.4727 9.81 60.8327 10.02C61.1927 10.22 61.6027 10.32 62.0627 10.32C62.5327 10.32 62.9427 10.22 63.2927 10.02C63.6527 9.81 63.9327 9.52 64.1327 9.15C64.3427 8.78 64.4477 8.365 64.4477 7.905V0.824999H66.4877V8.01C66.4877 8.81 66.2977 9.525 65.9177 10.155C65.5377 10.785 65.0127 11.28 64.3427 11.64C63.6827 12 62.9227 12.18 62.0627 12.18ZM69.2743 12V0.824999H70.8643L77.0143 9.105L76.1893 9.27V0.824999H78.2293V12H76.6243L70.5643 3.66L71.3143 3.495V12H69.2743ZM81.1425 12V0.824999H83.1825V12H81.1425ZM85.212 12V10.395L90.627 2.625H85.527V0.824999H93.222V2.43L87.822 10.2H93.372V12H85.212Z" fill="black"/>
</svg>
